# This file uses centimeters as units for non-parametric coordinates.

g default
v -0.577558 1.337666 0.577557
v 0.577558 1.337665 0.577558
v -0.577558 2.491479 0.577557
v 0.577558 2.491479 0.577558
v -0.577556 2.491478 -0.577557
v 0.577557 2.491478 -0.577556
v -0.577556 1.337666 -0.577557
v 0.577557 1.337667 -0.577556
v 0.000000 1.207466 0.707106
v 0.000000 2.621679 0.707106
v 0.000000 2.621679 -0.707104
v 0.000000 1.207466 -0.707104
v -0.707106 1.914572 0.707105
v 0.707106 1.914572 0.707106
v -0.707105 2.621679 0.000000
v 0.707107 2.621679 0.000000
v -0.707104 1.914572 -0.707105
v 0.707104 1.914572 -0.707103
v -0.707105 1.207466 0.000000
v 0.707107 1.207466 0.000000
v 0.000000 1.914572 0.999999
v 0.000000 2.914572 0.000000
v 0.000001 1.914572 -0.999996
v 0.000000 0.914572 0.000000
v 1.000000 1.914572 0.000000
v -0.999997 1.914572 0.000000
vt 0.500000 0.000000
vt 0.625000 0.000000
vt 0.625000 0.125000
vt 0.500000 0.125000
vt 0.625000 0.250000
vt 0.500000 0.250000
vt 0.375000 0.250000
vt 0.375000 0.125000
vt 0.375000 0.000000
vt 0.625000 0.375000
vt 0.500000 0.375000
vt 0.625000 0.500000
vt 0.500000 0.500000
vt 0.375000 0.500000
vt 0.375000 0.375000
vt 0.625000 0.625000
vt 0.500000 0.625000
vt 0.625000 0.750000
vt 0.500000 0.750000
vt 0.375000 0.750000
vt 0.375000 0.625000
vt 0.625000 0.875000
vt 0.500000 0.875000
vt 0.625000 1.000000
vt 0.500000 1.000000
vt 0.375000 1.000000
vt 0.375000 0.875000
vt 0.750000 0.000000
vt 0.875000 0.000000
vt 0.875000 0.125000
vt 0.750000 0.125000
vt 0.875000 0.250000
vt 0.750000 0.250000
vt 0.250000 0.000000
vt 0.250000 0.125000
vt 0.250000 0.250000
vt 0.125000 0.250000
vt 0.125000 0.125000
vt 0.125000 0.000000
vn 0.324983 -0.324983 0.888128
vn 0.324983 -0.324983 0.888128
vn 0.324983 -0.324983 0.888128
vn 0.324983 -0.324983 0.888128
vn 0.324984 0.324983 0.888128
vn 0.324984 0.324983 0.888128
vn 0.324984 0.324983 0.888128
vn 0.324984 0.324983 0.888128
vn -0.324985 0.324983 0.888128
vn -0.324985 0.324983 0.888128
vn -0.324985 0.324983 0.888128
vn -0.324985 0.324983 0.888128
vn -0.324985 -0.324983 0.888128
vn -0.324985 -0.324983 0.888128
vn -0.324985 -0.324983 0.888128
vn -0.324985 -0.324983 0.888128
vn 0.325234 0.887945 0.325234
vn 0.325234 0.887945 0.325234
vn 0.325234 0.887945 0.325234
vn 0.325234 0.887945 0.325234
vn 0.325235 0.887944 -0.325236
vn 0.325235 0.887944 -0.325236
vn 0.325235 0.887944 -0.325236
vn 0.325235 0.887944 -0.325236
vn -0.325235 0.887944 -0.325235
vn -0.325235 0.887944 -0.325235
vn -0.325235 0.887944 -0.325235
vn -0.325235 0.887944 -0.325235
vn -0.325235 0.887944 0.325234
vn -0.325235 0.887944 0.325234
vn -0.325235 0.887944 0.325234
vn -0.325235 0.887944 0.325234
vn 0.324985 0.324982 -0.888128
vn 0.324985 0.324982 -0.888128
vn 0.324985 0.324982 -0.888128
vn 0.324985 0.324982 -0.888128
vn 0.324985 -0.324983 -0.888128
vn 0.324985 -0.324983 -0.888128
vn 0.324985 -0.324983 -0.888128
vn 0.324985 -0.324982 -0.888128
vn -0.324982 -0.324983 -0.888129
vn -0.324982 -0.324983 -0.888129
vn -0.324982 -0.324983 -0.888129
vn -0.324982 -0.324983 -0.888129
vn -0.324983 0.324982 -0.888129
vn -0.324983 0.324982 -0.888129
vn -0.324983 0.324982 -0.888129
vn -0.324983 0.324982 -0.888129
vn 0.325235 -0.887943 -0.325237
vn 0.325235 -0.887943 -0.325237
vn 0.325235 -0.887943 -0.325237
vn 0.325235 -0.887943 -0.325237
vn 0.325234 -0.887945 0.325235
vn 0.325234 -0.887945 0.325235
vn 0.325234 -0.887945 0.325235
vn 0.325234 -0.887945 0.325235
vn -0.325235 -0.887944 0.325235
vn -0.325235 -0.887944 0.325235
vn -0.325235 -0.887944 0.325235
vn -0.325235 -0.887944 0.325235
vn -0.325235 -0.887944 -0.325236
vn -0.325235 -0.887944 -0.325236
vn -0.325235 -0.887944 -0.325236
vn -0.325235 -0.887944 -0.325236
vn 0.888127 -0.324983 -0.324988
vn 0.888127 -0.324983 -0.324988
vn 0.888127 -0.324983 -0.324988
vn 0.888127 -0.324983 -0.324988
vn 0.888127 0.324982 -0.324988
vn 0.888127 0.324982 -0.324988
vn 0.888127 0.324982 -0.324988
vn 0.888127 0.324982 -0.324988
vn 0.888128 0.324983 0.324985
vn 0.888128 0.324983 0.324985
vn 0.888128 0.324983 0.324985
vn 0.888128 0.324983 0.324985
vn 0.888128 -0.324983 0.324984
vn 0.888128 -0.324983 0.324984
vn 0.888128 -0.324983 0.324984
vn 0.888128 -0.324983 0.324984
vn -0.888129 -0.324983 0.324982
vn -0.888129 -0.324983 0.324982
vn -0.888129 -0.324983 0.324982
vn -0.888129 -0.324983 0.324982
vn -0.888129 0.324982 0.324982
vn -0.888129 0.324982 0.324982
vn -0.888129 0.324982 0.324982
vn -0.888129 0.324982 0.324982
vn -0.888128 0.324983 -0.324985
vn -0.888128 0.324983 -0.324985
vn -0.888128 0.324983 -0.324985
vn -0.888128 0.324983 -0.324985
vn -0.888128 -0.324983 -0.324985
vn -0.888128 -0.324983 -0.324985
vn -0.888128 -0.324983 -0.324985
vn -0.888128 -0.324983 -0.324985
s off
g test3:tx_sphere
f 9/1/1 2/2/2 14/3/3 21/4/4
f 14/3/5 4/5/6 10/6/7 21/4/8
f 10/6/9 3/7/10 13/8/11 21/4/12
f 13/8/13 1/9/14 9/1/15 21/4/16
f 10/6/17 4/5/18 16/10/19 22/11/20
f 16/10/21 6/12/22 11/13/23 22/11/24
f 11/13/25 5/14/26 15/15/27 22/11/28
f 15/15/29 3/7/30 10/6/31 22/11/32
f 11/13/33 6/12/34 18/16/35 23/17/36
f 18/16/37 8/18/38 12/19/39 23/17/40
f 12/19/41 7/20/42 17/21/43 23/17/44
f 17/21/45 5/14/46 11/13/47 23/17/48
f 12/19/49 8/18/50 20/22/51 24/23/52
f 20/22/53 2/24/54 9/25/55 24/23/56
f 9/25/57 1/26/58 19/27/59 24/23/60
f 19/27/61 7/20/62 12/19/63 24/23/64
f 20/28/65 8/29/66 18/30/67 25/31/68
f 18/30/69 6/32/70 16/33/71 25/31/72
f 16/33/73 4/5/74 14/3/75 25/31/76
f 14/3/77 2/2/78 20/28/79 25/31/80
f 19/34/81 1/9/82 13/8/83 26/35/84
f 13/8/85 3/7/86 15/36/87 26/35/88
f 15/36/89 5/37/90 17/38/91 26/35/92
f 17/38/93 7/39/94 19/34/95 26/35/96
g default
v 0.250000 0.521353 -0.433013
v -0.250000 0.521353 -0.433013
v -0.500000 0.521353 0.000000
v -0.250000 0.521353 0.433013
v 0.250000 0.521353 0.433013
v 0.500000 0.521353 0.000000
v 0.375000 0.954365 -0.649519
v -0.375000 0.954365 -0.649519
v -0.750000 0.954365 0.000000
v -0.375000 0.954365 0.649519
v 0.375000 0.954365 0.649519
v 0.750000 0.954365 0.000000
v 0.625000 0.954365 -1.082532
v -0.625000 0.954365 -1.082532
v -1.250000 0.954365 0.000000
v -0.625000 0.954365 1.082532
v 0.625000 0.954365 1.082532
v 1.250000 0.954365 0.000000
v 0.750000 0.521352 -1.299038
v -0.750000 0.521352 -1.299038
v -1.500000 0.521352 0.000000
v -0.750000 0.521352 1.299038
v 0.750000 0.521352 1.299038
v 1.500000 0.521352 0.000000
v 0.625000 0.088340 -1.082532
v -0.625000 0.088340 -1.082532
v -1.250000 0.088340 0.000000
v -0.625000 0.088340 1.082532
v 0.625000 0.088340 1.082532
v 1.250000 0.088340 0.000000
v 0.375000 0.088340 -0.649519
v -0.375000 0.088340 -0.649519
v -0.750000 0.088340 0.000000
v -0.375000 0.088340 0.649519
v 0.375000 0.088340 0.649519
v 0.750000 0.088340 0.000000
vt 0.166667 1.000000
vt 0.000000 1.000000
vt 0.000000 0.833333
vt 0.166667 0.833333
vt 0.333333 1.000000
vt 0.333333 0.833333
vt 0.500000 1.000000
vt 0.500000 0.833333
vt 0.666667 1.000000
vt 0.666667 0.833333
vt 0.833333 1.000000
vt 0.833333 0.833333
vt 1.000000 1.000000
vt 1.000000 0.833333
vt 0.000000 0.666667
vt 0.166667 0.666667
vt 0.333333 0.666667
vt 0.500000 0.666667
vt 0.666667 0.666667
vt 0.833333 0.666667
vt 1.000000 0.666667
vt 0.000000 0.500000
vt 0.166667 0.500000
vt 0.333333 0.500000
vt 0.500000 0.500000
vt 0.666667 0.500000
vt 0.833333 0.500000
vt 1.000000 0.500000
vt 0.000000 0.333333
vt 0.166667 0.333333
vt 0.333333 0.333333
vt 0.500000 0.333333
vt 0.666667 0.333333
vt 0.833333 0.333333
vt 1.000000 0.333333
vt 0.000000 0.166667
vt 0.166667 0.166667
vt 0.333333 0.166667
vt 0.500000 0.166667
vt 0.666667 0.166667
vt 0.833333 0.166667
vt 1.000000 0.166667
vt 0.000000 -0.000000
vt 0.166667 -0.000000
vt 0.333333 -0.000000
vt 0.500000 -0.000000
vt 0.666667 -0.000000
vt 0.833333 -0.000000
vt 1.000000 -0.000000
vn 0.000000 0.447214 0.894427
vn 0.000000 0.447214 0.894427
vn 0.000000 0.447214 0.894427
vn 0.000000 0.447214 0.894427
vn 0.774597 0.447214 0.447213
vn 0.774597 0.447214 0.447213
vn 0.774597 0.447214 0.447213
vn 0.774597 0.447214 0.447213
vn 0.774597 0.447214 -0.447213
vn 0.774597 0.447214 -0.447213
vn 0.774597 0.447214 -0.447213
vn 0.774597 0.447214 -0.447213
vn 0.000000 0.447214 -0.894427
vn 0.000000 0.447214 -0.894427
vn 0.000000 0.447214 -0.894427
vn 0.000000 0.447214 -0.894427
vn -0.774597 0.447214 -0.447213
vn -0.774597 0.447214 -0.447213
vn -0.774597 0.447214 -0.447213
vn -0.774597 0.447214 -0.447213
vn -0.774597 0.447214 0.447213
vn -0.774597 0.447214 0.447213
vn -0.774597 0.447214 0.447213
vn -0.774597 0.447214 0.447213
vn 0.000000 1.000000 -0.000000
vn 0.000000 1.000000 -0.000000
vn 0.000000 1.000000 -0.000000
vn 0.000000 1.000000 -0.000000
vn 0.000000 1.000000 -0.000000
vn 0.000000 1.000000 -0.000000
vn 0.000000 1.000000 -0.000000
vn 0.000000 1.000000 -0.000000
vn 0.000000 1.000000 0.000000
vn 0.000000 1.000000 0.000000
vn 0.000000 1.000000 0.000000
vn 0.000000 1.000000 0.000000
vn 0.000000 1.000000 0.000000
vn 0.000000 1.000000 0.000000
vn 0.000000 1.000000 0.000000
vn 0.000000 1.000000 0.000000
vn 0.000000 1.000000 0.000000
vn 0.000000 1.000000 0.000000
vn 0.000000 1.000000 0.000000
vn 0.000000 1.000000 0.000000
vn 0.000000 1.000000 -0.000000
vn 0.000000 1.000000 -0.000000
vn 0.000000 1.000000 -0.000000
vn 0.000000 1.000000 -0.000000
vn 0.000000 0.447213 -0.894428
vn 0.000000 0.447213 -0.894428
vn 0.000000 0.447213 -0.894428
vn 0.000000 0.447213 -0.894428
vn -0.774597 0.447213 -0.447214
vn -0.774597 0.447213 -0.447214
vn -0.774597 0.447213 -0.447214
vn -0.774597 0.447213 -0.447214
vn -0.774597 0.447213 0.447214
vn -0.774597 0.447213 0.447214
vn -0.774597 0.447213 0.447214
vn -0.774597 0.447213 0.447214
vn 0.000000 0.447213 0.894428
vn 0.000000 0.447213 0.894428
vn 0.000000 0.447213 0.894428
vn 0.000000 0.447213 0.894428
vn 0.774597 0.447213 0.447214
vn 0.774597 0.447213 0.447214
vn 0.774597 0.447213 0.447214
vn 0.774597 0.447213 0.447214
vn 0.774597 0.447213 -0.447214
vn 0.774597 0.447213 -0.447214
vn 0.774597 0.447213 -0.447214
vn 0.774597 0.447213 -0.447214
vn 0.000000 -0.447214 -0.894427
vn 0.000000 -0.447214 -0.894427
vn 0.000000 -0.447214 -0.894427
vn 0.000000 -0.447214 -0.894427
vn -0.774597 -0.447214 -0.447214
vn -0.774597 -0.447214 -0.447214
vn -0.774597 -0.447214 -0.447214
vn -0.774597 -0.447214 -0.447214
vn -0.774597 -0.447214 0.447213
vn -0.774597 -0.447214 0.447213
vn -0.774596 -0.447214 0.447213
vn -0.774597 -0.447214 0.447213
vn 0.000000 -0.447214 0.894427
vn 0.000000 -0.447214 0.894427
vn 0.000000 -0.447214 0.894427
vn 0.000000 -0.447214 0.894427
vn 0.774597 -0.447214 0.447214
vn 0.774597 -0.447214 0.447214
vn 0.774597 -0.447214 0.447214
vn 0.774597 -0.447214 0.447214
vn 0.774597 -0.447214 -0.447213
vn 0.774597 -0.447214 -0.447213
vn 0.774596 -0.447214 -0.447213
vn 0.774597 -0.447214 -0.447213
vn 0.000000 -1.000000 0.000000
vn 0.000000 -1.000000 0.000000
vn 0.000000 -1.000000 0.000000
vn 0.000000 -1.000000 0.000000
vn 0.000000 -1.000000 0.000000
vn 0.000000 -1.000000 0.000000
vn 0.000000 -1.000000 0.000000
vn 0.000000 -1.000000 0.000000
vn 0.000000 -1.000000 -0.000000
vn 0.000000 -1.000000 -0.000000
vn 0.000000 -1.000000 -0.000000
vn 0.000000 -1.000000 -0.000000
vn 0.000000 -1.000000 -0.000000
vn 0.000000 -1.000000 -0.000000
vn 0.000000 -1.000000 -0.000000
vn 0.000000 -1.000000 -0.000000
vn 0.000000 -1.000000 -0.000000
vn 0.000000 -1.000000 -0.000000
vn 0.000000 -1.000000 -0.000000
vn 0.000000 -1.000000 -0.000000
vn 0.000000 -1.000000 0.000000
vn 0.000000 -1.000000 0.000000
vn 0.000000 -1.000000 0.000000
vn 0.000000 -1.000000 0.000000
vn 0.000000 -0.447213 0.894428
vn 0.000000 -0.447213 0.894428
vn 0.000000 -0.447213 0.894428
vn 0.000000 -0.447213 0.894428
vn 0.774597 -0.447213 0.447214
vn 0.774597 -0.447213 0.447214
vn 0.774597 -0.447213 0.447214
vn 0.774597 -0.447213 0.447214
vn 0.774597 -0.447213 -0.447214
vn 0.774597 -0.447213 -0.447214
vn 0.774597 -0.447213 -0.447214
vn 0.774597 -0.447213 -0.447214
vn 0.000000 -0.447213 -0.894428
vn 0.000000 -0.447213 -0.894428
vn 0.000000 -0.447213 -0.894428
vn 0.000000 -0.447213 -0.894428
vn -0.774597 -0.447213 -0.447214
vn -0.774597 -0.447213 -0.447214
vn -0.774597 -0.447213 -0.447214
vn -0.774597 -0.447213 -0.447214
vn -0.774597 -0.447213 0.447214
vn -0.774597 -0.447213 0.447214
vn -0.774597 -0.447213 0.447214
vn -0.774597 -0.447213 0.447214
s off
g test3:tx_torus
f 28/40/97 27/41/98 33/42/99 34/43/100
f 29/44/101 28/40/102 34/43/103 35/45/104
f 30/46/105 29/44/106 35/45/107 36/47/108
f 31/48/109 30/46/110 36/47/111 37/49/112
f 32/50/113 31/48/114 37/49/115 38/51/116
f 27/52/117 32/50/118 38/51/119 33/53/120
f 34/43/121 33/42/122 39/54/123 40/55/124
f 35/45/125 34/43/126 40/55/127 41/56/128
f 36/47/129 35/45/130 41/56/131 42/57/132
f 37/49/133 36/47/134 42/57/135 43/58/136
f 38/51/137 37/49/138 43/58/139 44/59/140
f 33/53/141 38/51/142 44/59/143 39/60/144
f 40/55/145 39/54/146 45/61/147 46/62/148
f 41/56/149 40/55/150 46/62/151 47/63/152
f 42/57/153 41/56/154 47/63/155 48/64/156
f 43/58/157 42/57/158 48/64/159 49/65/160
f 44/59/161 43/58/162 49/65/163 50/66/164
f 39/60/165 44/59/166 50/66/167 45/67/168
f 46/62/169 45/61/170 51/68/171 52/69/172
f 47/63/173 46/62/174 52/69/175 53/70/176
f 48/64/177 47/63/178 53/70/179 54/71/180
f 49/65/181 48/64/182 54/71/183 55/72/184
f 50/66/185 49/65/186 55/72/187 56/73/188
f 45/67/189 50/66/190 56/73/191 51/74/192
f 52/69/193 51/68/194 57/75/195 58/76/196
f 53/70/197 52/69/198 58/76/199 59/77/200
f 54/71/201 53/70/202 59/77/203 60/78/204
f 55/72/205 54/71/206 60/78/207 61/79/208
f 56/73/209 55/72/210 61/79/211 62/80/212
f 51/74/213 56/73/214 62/80/215 57/81/216
f 58/76/217 57/75/218 27/82/219 28/83/220
f 59/77/221 58/76/222 28/83/223 29/84/224
f 60/78/225 59/77/226 29/84/227 30/85/228
f 61/79/229 60/78/230 30/85/231 31/86/232
f 62/80/233 61/79/234 31/86/235 32/87/236
f 57/81/237 62/80/238 32/87/239 27/88/240
